<svg width="174" height="20" viewBox="0 0 174 20" fill="none" xmlns="http://www.w3.org/2000/svg">
<path d="M30.4541 2.72109C29.2331 2.72109 28.2877 3.18158 27.6179 4.10256C26.9481 5.01657 26.6132 6.29339 26.6132 7.93302C26.6132 11.3448 27.8935 13.0508 30.4541 13.0508C31.5286 13.0508 32.8299 12.7821 34.3579 12.2449V14.966C33.102 15.4893 31.6996 15.7509 30.1506 15.7509C27.9249 15.7509 26.2225 15.0776 25.0434 13.731C23.8642 12.3775 23.2747 10.4378 23.2747 7.91209C23.2747 6.3213 23.5642 4.92936 24.1433 3.73626C24.7224 2.53619 25.5527 1.6187 26.6342 0.983778C27.7226 0.34188 28.9959 0.0209314 30.4541 0.0209314C31.9403 0.0209314 33.4334 0.380255 34.9335 1.0989L33.8869 3.73626C33.3148 3.46415 32.7392 3.22693 32.1601 3.02459C31.581 2.82226 31.0123 2.72109 30.4541 2.72109Z" fill="#219653"/>
<path d="M52.8508 7.87022C52.8508 10.4029 52.2229 12.3496 50.967 13.7101C49.7111 15.0706 47.911 15.7509 45.5667 15.7509C43.2223 15.7509 41.4222 15.0706 40.1663 13.7101C38.9105 12.3496 38.2825 10.396 38.2825 7.84929C38.2825 5.30263 38.9105 3.3595 40.1663 2.01988C41.4292 0.673295 43.2363 0 45.5876 0C47.9389 0 49.7355 0.676784 50.9774 2.03035C52.2263 3.38392 52.8508 5.33054 52.8508 7.87022ZM41.6839 7.87022C41.6839 9.57963 42.0083 10.8669 42.6572 11.7321C43.3061 12.5972 44.2759 13.0298 45.5667 13.0298C48.1552 13.0298 49.4494 11.31 49.4494 7.87022C49.4494 4.42351 48.1622 2.70016 45.5876 2.70016C44.2968 2.70016 43.3235 3.13623 42.6676 4.00837C42.0118 4.87354 41.6839 6.16082 41.6839 7.87022Z" fill="#219653"/>
<path d="M69.4704 12.967H71.7519V20H68.6226V15.5416H57.3615V0.240712H60.6059V12.8414H66.2365V0.240712H69.4704V12.967Z" fill="#219653"/>
<path d="M75.4463 0.240712H78.3662V7.62951L78.3244 9.60754L78.2197 11.8577H78.2825L85.3469 0.240712H89.2297V15.5416H86.3411V8.19466C86.3411 7.21088 86.4039 5.75266 86.5295 3.81999H86.4458L79.35 15.5416H75.4463V0.240712Z" fill="#219653"/>
<path d="M108.319 7.87022C108.319 10.4029 107.691 12.3496 106.435 13.7101C105.179 15.0706 103.379 15.7509 101.035 15.7509C98.6907 15.7509 96.8906 15.0706 95.6347 13.7101C94.3788 12.3496 93.7509 10.396 93.7509 7.84929C93.7509 5.30263 94.3788 3.3595 95.6347 2.01988C96.8975 0.673295 98.7046 0 101.056 0C103.407 0 105.204 0.676784 106.446 2.03035C107.695 3.38392 108.319 5.33054 108.319 7.87022ZM97.1522 7.87022C97.1522 9.57963 97.4767 10.8669 98.1255 11.7321C98.7744 12.5972 99.7442 13.0298 101.035 13.0298C103.624 13.0298 104.918 11.31 104.918 7.87022C104.918 4.42351 103.631 2.70016 101.056 2.70016C99.7652 2.70016 98.7918 3.13623 98.136 4.00837C97.4801 4.87354 97.1522 6.16082 97.1522 7.87022Z" fill="#219653"/>
<path d="M119.308 15.5416L115.624 3.53741H115.53C115.663 5.97942 115.729 7.60858 115.729 8.42491V15.5416H112.83V0.240712H117.246L120.868 11.9414H120.93L124.771 0.240712H129.188V15.5416H126.163V8.29932C126.163 7.95744 126.167 7.56323 126.174 7.11669C126.188 6.67016 126.236 5.48404 126.32 3.55835H126.226L122.28 15.5416H119.308Z" fill="#219653"/>
<path d="M134.389 0.240712H137.309V7.62951L137.267 9.60754L137.163 11.8577H137.225L144.29 0.240712H148.173V15.5416H145.284V8.19466C145.284 7.21088 145.347 5.75266 145.472 3.81999H145.389L138.293 15.5416H134.389V0.240712Z" fill="#219653"/>
<line y1="7.83447" x2="16.6667" y2="7.83447" stroke="#219653" stroke-width="2"/>
<line x1="156.667" y1="7.83447" x2="173.333" y2="7.83447" stroke="#219653" stroke-width="2"/>
</svg>
