<svg width="401" height="313" viewBox="0 0 401 313" fill="none" xmlns="http://www.w3.org/2000/svg">
<path opacity="0.19" fill-rule="evenodd" clip-rule="evenodd" d="M205.29 0L293.71 153.15L382.14 306.3H205.29H28.4504L116.87 153.15L205.29 0Z" fill="#2BAF64"/>
<path fill-rule="evenodd" clip-rule="evenodd" d="M218.281 302.92C220.841 305.27 215.071 304.33 218.281 302.92C223.171 299.92 270.861 183.59 295.761 153.04C303 144.22 311.111 136.152 319.971 128.96L346.701 108.81C353.621 103.92 347.931 106.58 359.881 99.28C367.631 94.54 372.181 88.44 380.361 84.41C383.094 83.1251 385.652 81.4952 387.971 79.56C391.971 76.56 399.121 73.13 400.751 67.75C396.001 59.1 392.911 65.14 387.031 68.12C358.161 82.8 302.891 114.45 272.621 112.93C245.971 111.6 204.141 58.52 186.621 36.08L175.271 21.88C173.271 18.88 173.671 16.03 169.411 15.14C158.161 12.78 165.471 25.31 167.161 28.27C168.691 30.98 169.571 32.69 171.081 35.44C171.761 36.7781 172.554 38.056 173.451 39.26C186.581 55.83 180.171 53.13 189.451 64.37L214.321 109.59C231.971 153.11 229.571 161.03 225.471 215.34C224.491 228.25 216.321 298.16 218.281 302.92Z" fill="#219653"/>
<path fill-rule="evenodd" clip-rule="evenodd" d="M325.54 98.72C305.93 107.24 286.59 113.63 272.6 112.93C267.39 112.67 261.6 110.43 255.55 106.85C252.4 107.28 249.217 107.43 246.04 107.3C230.4 106.52 209.54 87.93 191.43 68.16L214.21 109.59C231.97 153.11 229.57 161.03 225.47 215.34C224.93 222.45 222.2 246.89 220.2 268.19C232.66 229.67 252.34 168.1 269.2 147.41C276.433 138.593 284.534 130.526 293.38 123.33L320.11 103.18C324.31 100.23 323.88 100.03 325.54 98.72Z" fill="#2BAF64"/>
<path fill-rule="evenodd" clip-rule="evenodd" d="M277.361 45.85C248.461 47.02 247.901 98.49 276.171 96.36C286.681 95.57 296.331 83.43 296.911 69.73C297.401 58.03 290.901 45.3 277.361 45.85Z" fill="#219653"/>
<path fill-rule="evenodd" clip-rule="evenodd" d="M190.64 310.93C194.03 311.68 188.57 313.75 190.64 310.93C193.39 305.93 176.51 181.29 182.8 142.39C184.659 131.119 187.644 120.064 191.71 109.39L204.79 78.5799C208.34 70.8899 204.79 76.0299 211.44 63.7399C215.78 55.7399 216.66 48.1999 221.74 40.6199C223.463 38.1419 224.861 35.4533 225.9 32.6199C227.9 28.0699 232.34 21.4799 231.07 15.9999C222.63 10.8899 222.97 17.66 219.37 23.19C201.71 50.33 169.66 105.38 142.69 119.19C118.97 131.4 56.1804 106.35 29.7504 95.6899L12.8204 89.0299C9.58043 87.4099 8.52043 84.77 4.38043 86.13C-6.54957 89.71 6.06043 96.9 8.99043 98.63C11.6804 100.2 13.2904 101.25 15.9904 102.87C17.2502 103.707 18.5821 104.43 19.9704 105.03C39.6204 112.82 32.7304 113.68 46.3404 118.8L90.4904 145.53C127.66 174.32 129.49 182.41 153.11 231.48C158.69 243.15 186.56 307.78 190.64 310.93Z" fill="#2BAF64"/>
<path fill-rule="evenodd" clip-rule="evenodd" d="M181.43 80.45C168.72 97.64 155.16 112.84 142.69 119.23C138.06 121.61 131.93 122.56 124.89 122.48C122.38 124.43 119.703 126.157 116.89 127.64C102.97 134.78 75.5805 129.1 49.9705 121.03L90.4205 145.52C127.59 174.31 129.42 182.4 153.04 231.47C156.13 237.9 165.99 260.47 174.9 279.88C166.44 240.29 152.69 177.13 156.95 150.78C158.81 139.526 161.795 128.487 165.86 117.83L178.97 87.0299C181.12 82.3699 180.65 82.41 181.43 80.45Z" fill="#219653"/>
<path fill-rule="evenodd" clip-rule="evenodd" d="M113.28 58.75C88.8305 74.21 114.08 119.07 137.5 103.09C146.21 97.15 148.5 81.8201 142.14 69.6601C136.72 59.2901 124.72 51.51 113.28 58.75Z" fill="#2BAF64"/>
</svg>
